PathFileType	4	(X/Y/Z)	S01_0019_Gait_markers.trc
DataRate	CameraRate	NumFrames	NumMarkers	Units	OrigDataRate	OrigDataStartFrame	OrigNumFrames
250.000000	250.000000	4	54	mm	250.000000	226	363
Frame#	Time	HEAD_ANT			R_HEAD			L_HEAD			C7			R_BACK			L_BACK			STERNUM			R_ACROMION			R_HUM_PROX			R_HUM_ANT			R_HUM_POST			R_ELBOW_LAT			R_ELBOW_MED			R_FOREARM			R_WIRST_LAT			R_WRITS_MED			R_HAND			L_ACROMION			L_HUM_PROX			L_HUM_ANT			L_HUM_POST			L_ELBOW_LAT			L_ELBOW_MED			L_FOREARM			L_WRIST_LAT			L_WIRST_MED			L_HAND			R_ILIAC			SACRUM			L_ILIAC			R_GTROCH			R_THIGH__1			R_THIGH_2			R_THIGH_3			R_THIGH_4			R_SHANK_1			R_SHANK_2			R_SHANK_3			R_SHANK_4			R_HEEL			R_FOOT_LAT			R_FOOT_MED			L_GTROCH			L_THIGH_1			L_THIGH_2			L_THIGH_3			L_THIGH_4			L_SHANK_1			L_SHANK_2			L_SHANK_3			L_SHANK_4			L_HEEL			L_FOOT_LAT			L_FOOT_MED			
		X1	Y1	Z1	X2	Y2	Z2	X3	Y3	Z3	X4	Y4	Z4	X5	Y5	Z5	X6	Y6	Z6	X7	Y7	Z7	X8	Y8	Z8	X9	Y9	Z9	X10	Y10	Z10	X11	Y11	Z11	X12	Y12	Z12	X13	Y13	Z13	X14	Y14	Z14	X15	Y15	Z15	X16	Y16	Z16	X17	Y17	Z17	X18	Y18	Z18	X19	Y19	Z19	X20	Y20	Z20	X21	Y21	Z21	X22	Y22	Z22	X23	Y23	Z23	X24	Y24	Z24	X25	Y25	Z25	X26	Y26	Z26	X27	Y27	Z27	X28	Y28	Z28	X29	Y29	Z29	X30	Y30	Z30	X31	Y31	Z31	X32	Y32	Z32	X33	Y33	Z33	X34	Y34	Z34	X35	Y35	Z35	X36	Y36	Z36	X37	Y37	Z37	X38	Y38	Z38	X39	Y39	Z39	X40	Y40	Z40	X41	Y41	Z41	X42	Y42	Z42	X43	Y43	Z43	X44	Y44	Z44	X45	Y45	Z45	X46	Y46	Z46	X47	Y47	Z47	X48	Y48	Z48	X49	Y49	Z49	X50	Y50	Z50	X51	Y51	Z51	X52	Y52	Z52	X53	Y53	Z53	X54	Y54	Z54	

227	0.904	1278.772705078125	1741.839965820312	-331.6805725097652	1221.458618164062	1692.663818359375	-251.8002929687496	1221.149658203125	1689.428100585938	-399.3397521972652	1087.325927734375	1517.348999023438	-320.0308227539059	1021.696472167969	1317.881225585938	-251.6918792724607	1023.675659179688	1318.52392578125	-387.4009094238278	1272.5830078125	1361.452880859375	-315.7419738769528	1165.919189453125	1471.943115234375	-147.0938568115231	1134.804931640625	1312.599487304688	-54.0368881225583	1197.354614257812	1227.700927734375	-52.62503814697239	1076.784790039062	1228.860717773438	-37.3643608093259	1123.764526367188	1123.250122070312	-31.20081901550268	1096.802001953125	1117.212280273438	-109.8295288085935	1230.72314453125	942.451171875	-38.56008529663065	1264.321533203125	876.2565307617188	-82.33659362792949	1204.67431640625	852.92578125	-34.09519958496075	1276.634765625	788.0810546875	-29.24057960510236	1169.490234375	1470.689331054688	-486.7833251953122	1146.295288085938	1301.654296875	-578.4391479492184	1208.821044921875	1221.683349609375	-580.858703613281	1086.590698242188	1223.433471679688	-599.665832519531	1145.057495117188	1118.466064453125	-607.6796874999998	1096.1025390625	1113.587036132813	-548.8594970703123	1245.6533203125	941.8652343750001	-599.0531616210935	1274.402587890625	878.5278930664064	-547.8341064453123	1229.277587890625	860.8646240234376	-609.701477050781	1302.291625976562	799.6965942382814	-599.3912963867185	1165.292114257812	1066.888916015625	-139.251754760742	1048.304809570312	1041.867309570312	-319.0995483398435	1179.0634765625	1067.169189453125	-486.1601257324216	1114.276733398438	917.058349609375	-130.9887542724607	1177.031494140625	637.1422729492188	-140.1644134521483	1231.884765625	655.7320556640625	-128.7415161132811	1244.216186523438	551.9458618164062	-153.2060394287108	1178.131469726562	555.1890869140625	-154.3820190429686	1061.974487304688	404.5243530273438	-145.8976135253905	1085.634887695312	350.5138854980469	-159.2558135986327	1022.733459472656	294.7680053710938	-177.436538696289	983.1204223632812	344.0871887207032	-168.8112030029296	818.1339111328125	247.4293975830079	-257.2630615234374	858.6804809570312	87.25464630126957	-180.9015197753906	906.5104370117188	57.74059295654303	-266.8775634765625	1155.566284179688	957.5366210937501	-494.8499450683591	1297.394409179688	678.1722412109376	-454.9425964355467	1244.88525390625	686.3085327148439	-480.1408386230467	1242.958129882812	584.9630126953126	-445.2146911621093	1303.501220703125	600.5390625000001	-427.2301635742186	1270.937622070312	321.5711975097657	-418.0436401367187	1213.8681640625	304.2420349121095	-429.0738525390624	1201.5712890625	219.9622802734376	-410.5296936035156	1262.7958984375	222.2694091796876	-391.0217590332031	1131.76220703125	42.34005355834969	-339.283935546875	1310.816650390625	21.53098106384286	-400.1119995117188	1342.771118164062	25.35231590271002	-289.6773986816406	
228	0.908	1284.311889648438	1742.866088867188	-331.4627075195309	1227.161743164062	1693.723388671875	-251.7185363769528	1226.650146484375	1690.48974609375	-399.2823791503902	1092.90087890625	1518.10302734375	-320.2775268554684	1027.029663085938	1318.745483398438	-252.2747802734372	1029.1787109375	1319.6162109375	-387.7399291992185	1277.993041992188	1362.420166015625	-315.5532226562497	1171.069946289062	1472.908081054688	-147.1328277587887	1139.547241210938	1313.61083984375	-54.00217819213838	1202.102783203125	1228.739013671875	-52.41556167602512	1081.404418945312	1229.815307617188	-37.57282257080051	1128.637084960938	1124.317749023438	-31.23034477233862	1099.270385742188	1118.977294921875	-108.981132507324	1235.296020507812	943.460205078125	-38.46969604492167	1269.071899414062	877.2936401367188	-80.99519348144511	1209.354614257812	853.90087890625	-33.96488571166973	1281.23486328125	789.1683959960938	-29.01623535156233	1175.174438476562	1471.85888671875	-486.7238769531247	1152.260131835938	1302.8603515625	-578.7447509765622	1214.885009765625	1222.89404296875	-581.3251953124998	1092.5830078125	1224.638793945313	-599.751281738281	1151.479370117188	1119.617309570313	-607.9169311523435	1100.46044921875	1115.324829101563	-549.6005249023435	1252.462280273438	943.5788574218751	-598.736145019531	1281.467041015625	880.1036987304689	-547.9622802734373	1236.621337890625	862.3952026367189	-609.6068725585935	1309.71533203125	801.5173950195314	-598.796936035156	1169.8671875	1068.307983398438	-139.700729370117	1053.543823242188	1043.1201171875	-319.5093078613279	1184.884643554688	1068.61376953125	-486.1184387207029	1119.992065429688	918.1328125	-130.7598724365232	1185.442138671875	638.3110961914062	-139.1567230224608	1240.205688476562	657.0410766601562	-129.4715576171874	1253.507568359375	553.7487182617188	-153.0598602294921	1187.3359375	556.4288940429688	-154.0668640136718	1072.276123046875	404.8571472167969	-146.2588958740234	1096.518798828125	351.1002197265626	-158.9952545166015	1034.228637695312	294.4228515625001	-177.482437133789	993.9048461914062	343.5047912597657	-169.1999511718749	829.5703735351562	244.6140289306641	-257.2632446289062	874.5691528320312	86.28396606445317	-179.4992523193359	923.0835571289062	56.89764404296881	-265.3738403320312	1160.702270507812	958.1522216796876	-494.880432128906	1300.306396484375	677.8989868164064	-454.9753112792967	1247.785034179688	686.6729125976564	-480.5896606445311	1245.225341796875	585.3037719726564	-445.3111267089843	1305.505126953125	599.8624267578126	-427.0462646484374	1271.808959960938	321.5268859863282	-417.8943176269531	1214.580078125	304.3590087890626	-428.9880981445312	1202.61376953125	220.233383178711	-410.3956604003906	1263.449584960938	222.6523437500001	-390.9011535644531	1131.828491210938	42.46877288818367	-339.0657958984375	1310.818237304688	21.49600982666025	-400.1411743164062	1342.81787109375	25.33681297302252	-289.6778869628906	
229	0.912	1290.004028320312	1743.758544921875	-331.3499755859371	1232.78955078125	1694.748901367188	-251.6786651611324	1232.314331054688	1691.500366210938	-399.2629089355465	1098.360961914062	1519.364135742188	-320.3452148437497	1032.45263671875	1319.696044921875	-252.6561431884763	1034.633666992188	1320.690673828125	-388.1664733886716	1283.386352539062	1363.484497070312	-315.5307006835935	1176.197387695312	1473.917114257812	-147.1220550537106	1144.275512695312	1314.607299804688	-53.98021697998018	1206.76904296875	1229.71484375	-52.19577789306614	1086.115966796875	1230.761474609375	-37.9476242065427	1132.8515625	1125.041748046875	-31.28334808349585	1106.190795898438	1119.45068359375	-110.2501373291013	1239.970703125	944.4935913085938	-38.2833900451658	1273.702880859375	878.1433715820312	-82.18909454345683	1213.802612304688	854.8477172851562	-33.85211181640606	1285.7802734375	790.09765625	-28.75324821472151	1180.8984375	1473.113037109375	-486.6447143554684	1158.186889648438	1304.202880859375	-578.9223632812497	1221.029541015625	1224.201538085938	-581.4718627929685	1098.5234375	1225.760986328125	-599.954650878906	1157.888793945312	1120.79345703125	-608.224426269531	1108.046875	1115.956298828125	-549.8297729492185	1259.331176757812	945.1412353515626	-598.412414550781	1288.348510742188	881.8532104492189	-547.5531005859373	1243.796630859375	863.9007568359376	-609.0460815429685	1317.195190429688	803.4301147460939	-598.2240600585935	1177.827758789062	1070.172485351562	-140.526657104492	1059.006469726562	1044.152465820312	-319.6998901367185	1190.510620117188	1069.6875	-486.1192321777341	1125.954956054688	919.4298095703125	-130.7490539550779	1193.900024414062	639.7543334960938	-138.9426116943358	1248.662109375	658.8264770507812	-129.2013092041014	1262.68359375	555.4758911132812	-152.9241638183593	1196.489990234375	557.8515625	-153.651641845703	1082.584716796875	405.1004638671876	-146.2967224121093	1107.350341796875	351.6629943847657	-158.9574890136718	1045.748291015625	294.5410461425782	-177.2222595214843	1004.885070800781	342.9106140136719	-169.1898651123046	841.0618286132812	241.5147705078126	-257.3767395019531	890.1389770507812	84.95357513427739	-178.3732604980468	939.8015747070312	55.99956512451178	-263.6850891113281	1165.705810546875	958.8048706054689	-494.9996643066404	1303.145141601562	677.6173706054689	-454.8442077636717	1250.552001953125	686.7730712890626	-480.4992370605467	1247.237426757812	585.3443603515626	-444.9630126953124	1307.715209960938	599.4970703125001	-427.1831970214843	1272.639282226562	321.5355529785157	-417.7473144531249	1215.259399414062	304.394500732422	-428.9071960449218	1202.873168945312	219.976287841797	-410.1555480957031	1263.852416992188	222.3997802734376	-390.8888854980468	1131.956420898438	42.69632720947273	-338.5348205566406	1310.813720703125	21.51700973510751	-400.1234130859375	1342.841430664062	25.28209877014167	-289.6712646484375	
230	0.916	1295.688598632812	1744.627685546875	-331.152191162109	1238.32763671875	1695.696899414062	-251.4579772949215	1237.985595703125	1692.489868164062	-399.0932006835934	1103.969848632812	1520.44677734375	-320.2343139648434	1037.7978515625	1320.535522460938	-252.7312011718747	1040.250366210938	1321.89111328125	-388.7704772949216	1288.745727539062	1364.528198242188	-315.4447021484372	1181.304565429688	1474.944946289062	-147.0462036132809	1149.072265625	1315.6298828125	-54.09323120117158	1211.4453125	1230.652709960938	-51.85111618041965	1090.533569335938	1231.840087890625	-38.27897644042942	1139.381591796875	1125.919555664062	-31.01770210266088	1111.029296875	1120.475830078125	-110.3739624023435	1244.737426757812	945.6218872070312	-38.24240112304666	1278.5576171875	879.2035522460938	-81.93291473388652	1218.492553710938	855.8587036132812	-33.77872848510723	1290.551391601562	791.140869140625	-28.47085571289045	1186.462524414062	1474.144897460938	-486.6881713867184	1164.137573242188	1305.2490234375	-579.0741577148434	1227.046752929688	1225.525756835938	-581.677551269531	1104.545654296875	1226.958984375	-600.3718261718748	1164.069091796875	1122.284545898438	-608.5714721679685	1112.4921875	1117.68017578125	-550.4242553710935	1266.227172851562	946.6345825195314	-598.0353393554685	1294.917724609375	883.6303100585939	-546.6434326171873	1250.892944335938	865.4859008789064	-608.8124999999998	1324.584716796875	805.2315673828126	-597.7775268554685	1183.389526367188	1071.774780273438	-140.958297729492	1064.241577148438	1045.2041015625	-319.8348693847654	1196.394897460938	1070.93896484375	-486.0681152343748	1131.767211914062	920.6795043945312	-130.5810699462889	1202.534912109375	641.0790405273438	-139.062789916992	1257.068115234375	660.814453125	-128.2294006347655	1271.033325195312	557.0071411132812	-152.8242034912108	1205.541625976562	559.2967529296875	-153.4540710449218	1092.792358398438	405.4432678222657	-146.6332702636718	1118.260375976562	352.2354125976563	-158.8128204345702	1057.130615234375	294.1200561523438	-177.6404266357421	1016.04833984375	342.5057373046876	-169.3774261474609	852.8303833007812	238.3327026367188	-257.7288208007812	906.0475463867188	83.64818572998051	-177.4028167724609	956.761962890625	55.06719589233404	-262.1639099121094	1170.55322265625	959.4398193359376	-494.9591064453123	1305.752807617188	677.2111206054689	-454.9486083984373	1253.311889648438	686.9516601562501	-480.4278564453123	1248.799926757812	585.4281616210939	-444.913604736328	1309.670166015625	599.2451171875001	-427.2493896484374	1273.309692382812	321.564178466797	-417.5793762207031	1216.030639648438	304.6447753906251	-428.9638366699218	1203.241333007812	220.1840362548829	-410.0919189453124	1264.291748046875	222.4447174072266	-390.8710632324218	1132.080322265625	42.90433502197273	-338.1568908691406	1310.855834960938	21.53184700012216	-400.0962219238281	1342.896484375	25.26389694213874	-289.6941223144531	
